{
	"asset":{
		"generator":"Khronos glTF Blender I/O v3.6.27",
		"version":"2.0"
	},
	"extensionsUsed":[
		"KHR_materials_specular",
		"KHR_materials_ior"
	],
	"scene":0,
	"scenes":[
		{
			"name":"Scene",
			"nodes":[
				0
			]
		}
	],
	"nodes":[
		{
			"mesh":0,
			"name":"Propane.mol",
			"rotation":[
				0.7071068286895752,
				0,
				0,
				0.7071068286895752
			]
		}
	],
	"materials":[
		{
			"doubleSided":true,
			"extensions":{
				"KHR_materials_specular":{
					"specularColorFactor":[
						0.020080160244135427,
						0.020080160244135427,
						0.020080160244135427
					]
				},
				"KHR_materials_ior":{
					"ior":0.0010000000474974513
				}
			},
			"name":"k000000",
			"pbrMetallicRoughness":{
				"baseColorFactor":[
					0,
					0,
					0,
					1
				],
				"metallicFactor":0,
				"roughnessFactor":0.5962674021720886
			}
		},
		{
			"doubleSided":true,
			"extensions":{
				"KHR_materials_specular":{
					"specularColorFactor":[
						0.020080160244135427,
						0.020080160244135427,
						0.020080160244135427
					]
				},
				"KHR_materials_ior":{
					"ior":0.0010000000474974513
				}
			},
			"name":"kffffff",
			"pbrMetallicRoughness":{
				"metallicFactor":0,
				"roughnessFactor":0.5962674021720886
			}
		},
		{
			"doubleSided":true,
			"extensions":{
				"KHR_materials_specular":{
					"specularColorFactor":[
						0.020080160244135427,
						0.020080160244135427,
						0.020080160244135427
					]
				},
				"KHR_materials_ior":{
					"ior":0.0010000000474974513
				}
			},
			"name":"k808080",
			"pbrMetallicRoughness":{
				"baseColorFactor":[
					0.5040000081062317,
					0.5040000081062317,
					0.5040000081062317,
					1
				],
				"metallicFactor":0,
				"roughnessFactor":0.5962674021720886
			}
		}
	],
	"meshes":[
		{
			"name":"Propane.mol",
			"primitives":[
				{
					"attributes":{
						"POSITION":0,
						"NORMAL":1
					},
					"indices":2,
					"material":0
				},
				{
					"attributes":{
						"POSITION":3,
						"NORMAL":4
					},
					"indices":5,
					"material":1
				},
				{
					"attributes":{
						"POSITION":6,
						"NORMAL":7
					},
					"indices":8,
					"material":2
				}
			]
		}
	],
	"accessors":[
		{
			"bufferView":0,
			"componentType":5126,
			"count":3102,
			"max":[
				1.6742000579833984,
				0.42500001192092896,
				0.7059999704360962
			],
			"min":[
				-1.6742000579833984,
				-0.42500001192092896,
				-1.027400016784668
			],
			"type":"VEC3"
		},
		{
			"bufferView":1,
			"componentType":5126,
			"count":3102,
			"type":"VEC3"
		},
		{
			"bufferView":2,
			"componentType":5123,
			"count":11520,
			"type":"SCALAR"
		},
		{
			"bufferView":3,
			"componentType":5126,
			"count":8242,
			"max":[
				2.4142000675201416,
				1.1649999618530273,
				1.1852999925613403
			],
			"min":[
				-2.4142000675201416,
				-1.1649999618530273,
				-1.5066999197006226
			],
			"type":"VEC3"
		},
		{
			"bufferView":4,
			"componentType":5126,
			"count":8242,
			"type":"VEC3"
		},
		{
			"bufferView":5,
			"componentType":5123,
			"count":30720,
			"type":"SCALAR"
		},
		{
			"bufferView":6,
			"componentType":5126,
			"count":21920,
			"max":[
				2.2402000427246094,
				0.9909999966621399,
				1.011299967765808
			],
			"min":[
				-2.2402000427246094,
				-0.9909999966621399,
				-1.3326998949050903
			],
			"type":"VEC3"
		},
		{
			"bufferView":7,
			"componentType":5126,
			"count":21920,
			"type":"VEC3"
		},
		{
			"bufferView":8,
			"componentType":5123,
			"count":78960,
			"type":"SCALAR"
		}
	],
	"bufferViews":[
		{
			"buffer":0,
			"byteLength":37224,
			"byteOffset":0,
			"target":34962
		},
		{
			"buffer":0,
			"byteLength":37224,
			"byteOffset":37224,
			"target":34962
		},
		{
			"buffer":0,
			"byteLength":23040,
			"byteOffset":74448,
			"target":34963
		},
		{
			"buffer":0,
			"byteLength":98904,
			"byteOffset":97488,
			"target":34962
		},
		{
			"buffer":0,
			"byteLength":98904,
			"byteOffset":196392,
			"target":34962
		},
		{
			"buffer":0,
			"byteLength":61440,
			"byteOffset":295296,
			"target":34963
		},
		{
			"buffer":0,
			"byteLength":263040,
			"byteOffset":356736,
			"target":34962
		},
		{
			"buffer":0,
			"byteLength":263040,
			"byteOffset":619776,
			"target":34962
		},
		{
			"buffer":0,
			"byteLength":157920,
			"byteOffset":882816,
			"target":34963
		}
	],
	"buffers":[
		{
			"byteLength":1040736,
			"uri":"data:application/octet-stream;base64,"
		}
	]
}
